<svg xmlns="http://www.w3.org/2000/svg" xmlns:xlink="http://www.w3.org/1999/xlink" width="200" height="200" viewBox="0 0 200 200" fill="none"><g opacity="1" transform="translate(0 0)  rotate(0 100 100)"><path id="路径 2" fill-rule="evenodd" style="fill:#43CF7C" transform="translate(32 109)  rotate(0 68 44.5)" opacity="1" d="M124.94,0.59L79.94,20.77C72.17,24.24 63.73,24.24 55.97,20.77L11.07,0.62C8.52,-0.53 5.7,-0.01 3.5,2.02C1.3,4.04 -0.01,7.32 0,10.81L0,36.25C0,49.79 6.54,61.9 16.38,66.57L59.38,87.02C64.94,89.66 71.06,89.66 76.62,87.02L119.62,66.59C129.46,61.91 136,49.81 136,36.26L136,10.78C136,7.3 134.7,4.02 132.51,2C130.31,-0.02 127.49,-0.55 124.94,0.59Z " /><path id="路径 1" fill-rule="evenodd" style="fill:#2A82E4" transform="translate(0 0)  rotate(0 100 59.99999999999999)" opacity="1" d="M11.58,38.27C4.65,41.49 0,50.21 0,60C0,69.79 4.65,78.51 11.58,81.73L89.02,117.53C92.54,119.17 96.23,120 99.95,120C103.67,120 107.35,119.18 110.86,117.56L188.4,81.75C195.34,78.53 200,69.81 200,60.01C200,50.21 195.34,41.48 188.4,38.27L110.92,2.45C103.85,-0.82 96.16,-0.82 89.09,2.45L11.58,38.27Z " /></g></svg>